<svg width="503" height="86" viewBox="0 0 503 86" fill="none" xmlns="http://www.w3.org/2000/svg">
<path d="M0.43396 11C0.43396 4.92487 5.35883 0 11.434 0H491.424C497.499 0 502.424 4.92487 502.424 11V75C502.424 81.0751 497.499 86 491.424 86H11.4339C5.35881 86 0.43396 81.0751 0.43396 75V11Z" fill="#C14A4A"/>
<path d="M199.527 57.252C197.871 57.252 196.383 56.964 195.063 56.388C193.767 55.788 192.747 54.972 192.003 53.94C191.259 52.884 190.875 51.672 190.851 50.304H194.343C194.463 51.48 194.943 52.476 195.783 53.292C196.647 54.084 197.895 54.48 199.527 54.48C201.087 54.48 202.311 54.096 203.199 53.328C204.111 52.536 204.567 51.528 204.567 50.304C204.567 49.344 204.303 48.564 203.775 47.964C203.247 47.364 202.587 46.908 201.795 46.596C201.003 46.284 199.935 45.948 198.591 45.588C196.935 45.156 195.603 44.724 194.595 44.292C193.611 43.86 192.759 43.188 192.039 42.276C191.343 41.34 190.995 40.092 190.995 38.532C190.995 37.164 191.343 35.952 192.039 34.896C192.735 33.84 193.707 33.024 194.955 32.448C196.227 31.872 197.679 31.584 199.311 31.584C201.663 31.584 203.583 32.172 205.071 33.348C206.583 34.524 207.435 36.084 207.627 38.028H204.027C203.907 37.068 203.403 36.228 202.515 35.508C201.627 34.764 200.451 34.392 198.987 34.392C197.619 34.392 196.503 34.752 195.639 35.472C194.775 36.168 194.343 37.152 194.343 38.424C194.343 39.336 194.595 40.08 195.099 40.656C195.627 41.232 196.263 41.676 197.007 41.988C197.775 42.276 198.843 42.612 200.211 42.996C201.867 43.452 203.199 43.908 204.207 44.364C205.215 44.796 206.079 45.48 206.799 46.416C207.519 47.328 207.879 48.576 207.879 50.16C207.879 51.384 207.555 52.536 206.907 53.616C206.259 54.696 205.299 55.572 204.027 56.244C202.755 56.916 201.255 57.252 199.527 57.252ZM214.392 34.068C213.768 34.068 213.24 33.852 212.808 33.42C212.376 32.988 212.16 32.46 212.16 31.836C212.16 31.212 212.376 30.684 212.808 30.252C213.24 29.82 213.768 29.604 214.392 29.604C214.992 29.604 215.496 29.82 215.904 30.252C216.336 30.684 216.552 31.212 216.552 31.836C216.552 32.46 216.336 32.988 215.904 33.42C215.496 33.852 214.992 34.068 214.392 34.068ZM215.976 37.272V57H212.7V37.272H215.976ZM229.695 36.948C231.399 36.948 232.887 37.32 234.159 38.064C235.455 38.808 236.415 39.744 237.039 40.872V37.272H240.351V57.432C240.351 59.232 239.967 60.828 239.199 62.22C238.431 63.636 237.327 64.74 235.887 65.532C234.471 66.324 232.815 66.72 230.919 66.72C228.327 66.72 226.167 66.108 224.439 64.884C222.711 63.66 221.691 61.992 221.379 59.88H224.619C224.979 61.08 225.723 62.04 226.851 62.76C227.979 63.504 229.335 63.876 230.919 63.876C232.719 63.876 234.183 63.312 235.311 62.184C236.463 61.056 237.039 59.472 237.039 57.432V53.292C236.391 54.444 235.431 55.404 234.159 56.172C232.887 56.94 231.399 57.324 229.695 57.324C227.943 57.324 226.347 56.892 224.907 56.028C223.491 55.164 222.375 53.952 221.559 52.392C220.743 50.832 220.335 49.056 220.335 47.064C220.335 45.048 220.743 43.284 221.559 41.772C222.375 40.236 223.491 39.048 224.907 38.208C226.347 37.368 227.943 36.948 229.695 36.948ZM237.039 47.1C237.039 45.612 236.739 44.316 236.139 43.212C235.539 42.108 234.723 41.268 233.691 40.692C232.683 40.092 231.567 39.792 230.343 39.792C229.119 39.792 228.003 40.08 226.995 40.656C225.987 41.232 225.183 42.072 224.583 43.176C223.983 44.28 223.683 45.576 223.683 47.064C223.683 48.576 223.983 49.896 224.583 51.024C225.183 52.128 225.987 52.98 226.995 53.58C228.003 54.156 229.119 54.444 230.343 54.444C231.567 54.444 232.683 54.156 233.691 53.58C234.723 52.98 235.539 52.128 236.139 51.024C236.739 49.896 237.039 48.588 237.039 47.1ZM255.499 36.912C257.899 36.912 259.843 37.644 261.331 39.108C262.819 40.548 263.563 42.636 263.563 45.372V57H260.323V45.84C260.323 43.872 259.831 42.372 258.847 41.34C257.863 40.284 256.519 39.756 254.815 39.756C253.087 39.756 251.707 40.296 250.675 41.376C249.667 42.456 249.163 44.028 249.163 46.092V57H245.887V37.272H249.163V40.08C249.811 39.072 250.687 38.292 251.791 37.74C252.919 37.188 254.155 36.912 255.499 36.912ZM281.716 31.908V47.784C281.716 50.016 282.256 51.672 283.336 52.752C284.44 53.832 285.964 54.372 287.908 54.372C289.828 54.372 291.328 53.832 292.408 52.752C293.512 51.672 294.064 50.016 294.064 47.784V31.908H297.34V47.748C297.34 49.836 296.92 51.6 296.08 53.04C295.24 54.456 294.1 55.512 292.66 56.208C291.244 56.904 289.648 57.252 287.872 57.252C286.096 57.252 284.488 56.904 283.048 56.208C281.632 55.512 280.504 54.456 279.664 53.04C278.848 51.6 278.44 49.836 278.44 47.748V31.908H281.716ZM306.081 40.908C306.729 39.78 307.689 38.844 308.961 38.1C310.257 37.332 311.757 36.948 313.461 36.948C315.213 36.948 316.797 37.368 318.213 38.208C319.653 39.048 320.781 40.236 321.597 41.772C322.413 43.284 322.821 45.048 322.821 47.064C322.821 49.056 322.413 50.832 321.597 52.392C320.781 53.952 319.653 55.164 318.213 56.028C316.797 56.892 315.213 57.324 313.461 57.324C311.781 57.324 310.293 56.952 308.997 56.208C307.725 55.44 306.753 54.492 306.081 53.364V66.36H302.805V37.272H306.081V40.908ZM319.473 47.064C319.473 45.576 319.173 44.28 318.573 43.176C317.973 42.072 317.157 41.232 316.125 40.656C315.117 40.08 314.001 39.792 312.777 39.792C311.577 39.792 310.461 40.092 309.429 40.692C308.421 41.268 307.605 42.12 306.981 43.248C306.381 44.352 306.081 45.636 306.081 47.1C306.081 48.588 306.381 49.896 306.981 51.024C307.605 52.128 308.421 52.98 309.429 53.58C310.461 54.156 311.577 54.444 312.777 54.444C314.001 54.444 315.117 54.156 316.125 53.58C317.157 52.98 317.973 52.128 318.573 51.024C319.173 49.896 319.473 48.576 319.473 47.064Z" fill="white"/>
</svg>
