<svg width="255" height="100" viewBox="0 0 255 100" fill="none" xmlns="http://www.w3.org/2000/svg">
<path d="M0 11C0 4.92487 4.92487 0 11 0H244C250.075 0 255 4.92487 255 11V89C255 95.0751 250.075 100 244 100H11C4.92487 100 0 95.0751 0 89V11Z" fill="#C14A4A"/>
<path d="M42.2548 62.224C40.7828 62.224 39.4601 61.968 38.2868 61.456C37.1348 60.9227 36.2281 60.1973 35.5668 59.28C34.9054 58.3413 34.5641 57.264 34.5428 56.048H37.6468C37.7534 57.0933 38.1801 57.9787 38.9268 58.704C39.6948 59.408 40.8041 59.76 42.2548 59.76C43.6414 59.76 44.7294 59.4187 45.5188 58.736C46.3294 58.032 46.7348 57.136 46.7348 56.048C46.7348 55.1947 46.5001 54.5013 46.0308 53.968C45.5614 53.4347 44.9748 53.0293 44.2708 52.752C43.5668 52.4747 42.6174 52.176 41.4228 51.856C39.9508 51.472 38.7668 51.088 37.8708 50.704C36.9961 50.32 36.2388 49.7227 35.5988 48.912C34.9801 48.08 34.6708 46.9707 34.6708 45.584C34.6708 44.368 34.9801 43.2907 35.5988 42.352C36.2174 41.4133 37.0814 40.688 38.1908 40.176C39.3214 39.664 40.6121 39.408 42.0628 39.408C44.1534 39.408 45.8601 39.9307 47.1828 40.976C48.5268 42.0213 49.2841 43.408 49.4548 45.136H46.2548C46.1481 44.2827 45.7001 43.536 44.9108 42.896C44.1214 42.2347 43.0761 41.904 41.7748 41.904C40.5588 41.904 39.5668 42.224 38.7988 42.864C38.0308 43.4827 37.6468 44.3573 37.6468 45.488C37.6468 46.2987 37.8708 46.96 38.3188 47.472C38.7881 47.984 39.3534 48.3787 40.0148 48.656C40.6974 48.912 41.6468 49.2107 42.8628 49.552C44.3348 49.9573 45.5188 50.3627 46.4148 50.768C47.3108 51.152 48.0788 51.76 48.7188 52.592C49.3588 53.4027 49.6788 54.512 49.6788 55.92C49.6788 57.008 49.3908 58.032 48.8148 58.992C48.2388 59.952 47.3854 60.7307 46.2548 61.328C45.1241 61.9253 43.7908 62.224 42.2548 62.224ZM57.516 46.864V57.2C57.516 58.0533 57.6973 58.6613 58.06 59.024C58.4227 59.3653 59.052 59.536 59.948 59.536H62.092V62H59.468C57.8467 62 56.6307 61.6267 55.82 60.88C55.0093 60.1333 54.604 58.9067 54.604 57.2V46.864H52.332V44.464H54.604V40.048H57.516V44.464H62.092V46.864H57.516ZM68.5323 47.312C69.0443 46.3093 69.7696 45.5307 70.7083 44.976C71.6683 44.4213 72.8309 44.144 74.1963 44.144V47.152H73.4283C70.1643 47.152 68.5323 48.9227 68.5323 52.464V62H65.6203V44.464H68.5323V47.312ZM93.5578 52.56C93.5578 53.1147 93.5258 53.7013 93.4618 54.32H79.4458C79.5524 56.048 80.1391 57.4027 81.2058 58.384C82.2938 59.344 83.6058 59.824 85.1418 59.824C86.4004 59.824 87.4458 59.536 88.2778 58.96C89.1311 58.3627 89.7284 57.5733 90.0698 56.592H93.2058C92.7364 58.2773 91.7978 59.6533 90.3898 60.72C88.9818 61.7653 87.2324 62.288 85.1418 62.288C83.4778 62.288 81.9844 61.9147 80.6618 61.168C79.3604 60.4213 78.3364 59.3653 77.5898 58C76.8431 56.6133 76.4698 55.0133 76.4698 53.2C76.4698 51.3867 76.8324 49.7973 77.5578 48.432C78.2831 47.0667 79.2964 46.0213 80.5978 45.296C81.9204 44.5493 83.4351 44.176 85.1418 44.176C86.8058 44.176 88.2778 44.5387 89.5578 45.264C90.8378 45.9893 91.8191 46.992 92.5018 48.272C93.2058 49.5307 93.5578 50.96 93.5578 52.56ZM90.5498 51.952C90.5498 50.8427 90.3044 49.8933 89.8138 49.104C89.3231 48.2933 88.6511 47.6853 87.7978 47.28C86.9658 46.8533 86.0378 46.64 85.0138 46.64C83.5418 46.64 82.2831 47.1093 81.2378 48.048C80.2138 48.9867 79.6271 50.288 79.4778 51.952H90.5498ZM96.3135 53.168C96.3135 51.376 96.6762 49.808 97.4015 48.464C98.1268 47.0987 99.1188 46.0427 100.378 45.296C101.658 44.5493 103.076 44.176 104.634 44.176C106.17 44.176 107.503 44.5067 108.634 45.168C109.764 45.8293 110.607 46.6613 111.162 47.664V44.464H114.106V62H111.162V58.736C110.586 59.76 109.722 60.6133 108.57 61.296C107.439 61.9573 106.116 62.288 104.602 62.288C103.044 62.288 101.636 61.904 100.378 61.136C99.1188 60.368 98.1268 59.2907 97.4015 57.904C96.6762 56.5173 96.3135 54.9387 96.3135 53.168ZM111.162 53.2C111.162 51.8773 110.895 50.7253 110.362 49.744C109.828 48.7627 109.103 48.016 108.186 47.504C107.29 46.9707 106.298 46.704 105.21 46.704C104.122 46.704 103.13 46.96 102.234 47.472C101.338 47.984 100.623 48.7307 100.09 49.712C99.5562 50.6933 99.2895 51.8453 99.2895 53.168C99.2895 54.512 99.5562 55.6853 100.09 56.688C100.623 57.6693 101.338 58.4267 102.234 58.96C103.13 59.472 104.122 59.728 105.21 59.728C106.298 59.728 107.29 59.472 108.186 58.96C109.103 58.4267 109.828 57.6693 110.362 56.688C110.895 55.6853 111.162 54.5227 111.162 53.2ZM140.115 44.144C141.48 44.144 142.696 44.432 143.763 45.008C144.829 45.5627 145.672 46.4053 146.291 47.536C146.909 48.6667 147.219 50.0427 147.219 51.664V62H144.339V52.08C144.339 50.3307 143.901 48.9973 143.027 48.08C142.173 47.1413 141.011 46.672 139.539 46.672C138.024 46.672 136.819 47.1627 135.923 48.144C135.027 49.104 134.579 50.5013 134.579 52.336V62H131.699V52.08C131.699 50.3307 131.261 48.9973 130.387 48.08C129.533 47.1413 128.371 46.672 126.899 46.672C125.384 46.672 124.179 47.1627 123.283 48.144C122.387 49.104 121.939 50.5013 121.939 52.336V62H119.027V44.464H121.939V46.992C122.515 46.0747 123.283 45.3707 124.243 44.88C125.224 44.3893 126.301 44.144 127.475 44.144C128.947 44.144 130.248 44.4747 131.379 45.136C132.509 45.7973 133.352 46.768 133.907 48.048C134.397 46.8107 135.208 45.8507 136.339 45.168C137.469 44.4853 138.728 44.144 140.115 44.144ZM178.062 62H175.151L163.439 44.24V62H160.527V39.664H163.439L175.151 57.392V39.664H178.062V62ZM190.675 62.288C189.032 62.288 187.539 61.9147 186.195 61.168C184.872 60.4213 183.827 59.3653 183.059 58C182.312 56.6133 181.939 55.0133 181.939 53.2C181.939 51.408 182.323 49.8293 183.091 48.464C183.88 47.0773 184.947 46.0213 186.291 45.296C187.635 44.5493 189.139 44.176 190.803 44.176C192.467 44.176 193.971 44.5493 195.315 45.296C196.659 46.0213 197.715 47.0667 198.483 48.432C199.272 49.7973 199.667 51.3867 199.667 53.2C199.667 55.0133 199.261 56.6133 198.451 58C197.661 59.3653 196.584 60.4213 195.219 61.168C193.853 61.9147 192.339 62.288 190.675 62.288ZM190.675 59.728C191.72 59.728 192.701 59.4827 193.619 58.992C194.536 58.5013 195.272 57.7653 195.827 56.784C196.403 55.8027 196.691 54.608 196.691 53.2C196.691 51.792 196.413 50.5973 195.859 49.616C195.304 48.6347 194.579 47.9093 193.683 47.44C192.787 46.9493 191.816 46.704 190.771 46.704C189.704 46.704 188.723 46.9493 187.827 47.44C186.952 47.9093 186.248 48.6347 185.715 49.616C185.181 50.5973 184.915 51.792 184.915 53.2C184.915 54.6293 185.171 55.8347 185.683 56.816C186.216 57.7973 186.92 58.5333 187.795 59.024C188.669 59.4933 189.629 59.728 190.675 59.728ZM226.855 44.464L221.383 62H218.375L214.151 48.08L209.927 62H206.919L201.415 44.464H204.391L208.423 59.184L212.775 44.464H215.751L220.007 59.216L223.975 44.464H226.855Z" fill="white"/>
</svg>
